<mxfile host="app.diagrams.net" agent="Mozilla/5.0 (Windows NT 10.0; Win64; x64) AppleWebKit/537.36 (KHTML, like Gecko) Chrome/140.0.0.0 Safari/537.36" version="28.2.1">
  <diagram name="Pagina-1" id="WEiiEdCZ2JEpQHq2wR9L">
    <mxGraphModel dx="1426" dy="863" grid="1" gridSize="10" guides="1" tooltips="1" connect="1" arrows="1" fold="1" page="1" pageScale="1" pageWidth="827" pageHeight="1169" math="0" shadow="0">
      <root>
        <mxCell id="0" />
        <mxCell id="1" parent="0" />
        <mxCell id="ba-HstKeJ3zoxD5T-Xpc-1" value="utente" style="ellipse;whiteSpace=wrap;html=1;aspect=fixed;" vertex="1" parent="1">
          <mxGeometry x="40" y="160" width="80" height="80" as="geometry" />
        </mxCell>
        <mxCell id="ba-HstKeJ3zoxD5T-Xpc-2" value="" style="endArrow=none;html=1;rounded=0;" edge="1" parent="1">
          <mxGeometry width="50" height="50" relative="1" as="geometry">
            <mxPoint x="120" y="200" as="sourcePoint" />
            <mxPoint x="240" y="200" as="targetPoint" />
          </mxGeometry>
        </mxCell>
        <mxCell id="ba-HstKeJ3zoxD5T-Xpc-3" value="da all&#39;applicativo l&#39;accesso al microfono" style="ellipse;whiteSpace=wrap;html=1;" vertex="1" parent="1">
          <mxGeometry x="210" y="162" width="160" height="80" as="geometry" />
        </mxCell>
        <mxCell id="ba-HstKeJ3zoxD5T-Xpc-5" value="Suona una corda" style="ellipse;whiteSpace=wrap;html=1;" vertex="1" parent="1">
          <mxGeometry x="240" y="380" width="120" height="80" as="geometry" />
        </mxCell>
        <mxCell id="ba-HstKeJ3zoxD5T-Xpc-6" value="" style="endArrow=classic;html=1;rounded=0;endFill=1;dashed=1;" edge="1" parent="1" source="ba-HstKeJ3zoxD5T-Xpc-5">
          <mxGeometry width="50" height="50" relative="1" as="geometry">
            <mxPoint x="310" y="350" as="sourcePoint" />
            <mxPoint x="300" y="240" as="targetPoint" />
          </mxGeometry>
        </mxCell>
        <mxCell id="ba-HstKeJ3zoxD5T-Xpc-7" value="" style="endArrow=classic;html=1;rounded=0;dashed=1;startArrow=none;startFill=0;endFill=1;" edge="1" parent="1">
          <mxGeometry width="50" height="50" relative="1" as="geometry">
            <mxPoint x="299.5" y="600" as="sourcePoint" />
            <mxPoint x="299.5" y="460" as="targetPoint" />
          </mxGeometry>
        </mxCell>
        <mxCell id="ba-HstKeJ3zoxD5T-Xpc-8" value="feedback visivo e testuale" style="ellipse;whiteSpace=wrap;html=1;" vertex="1" parent="1">
          <mxGeometry x="250" y="600" width="120" height="80" as="geometry" />
        </mxCell>
        <mxCell id="ba-HstKeJ3zoxD5T-Xpc-9" value="&amp;lt;&amp;lt;extend&amp;gt;&amp;gt;" style="text;html=1;align=center;verticalAlign=middle;resizable=0;points=[];autosize=1;strokeColor=none;fillColor=none;" vertex="1" parent="1">
          <mxGeometry x="209" y="280" width="90" height="30" as="geometry" />
        </mxCell>
        <mxCell id="ba-HstKeJ3zoxD5T-Xpc-10" value="&amp;lt;&amp;lt;include&amp;gt;&amp;gt;" style="text;html=1;align=center;verticalAlign=middle;resizable=0;points=[];autosize=1;strokeColor=none;fillColor=none;" vertex="1" parent="1">
          <mxGeometry x="299" y="498" width="90" height="30" as="geometry" />
        </mxCell>
        <mxCell id="ba-HstKeJ3zoxD5T-Xpc-11" value="" style="endArrow=none;html=1;rounded=0;entryX=0.36;entryY=1;entryDx=0;entryDy=0;entryPerimeter=0;startArrow=classic;startFill=1;dashed=1;" edge="1" parent="1" target="ba-HstKeJ3zoxD5T-Xpc-13">
          <mxGeometry width="50" height="50" relative="1" as="geometry">
            <mxPoint x="370" y="200" as="sourcePoint" />
            <mxPoint x="490" y="200" as="targetPoint" />
          </mxGeometry>
        </mxCell>
        <mxCell id="ba-HstKeJ3zoxD5T-Xpc-13" value="imposta la nota La di riferimento" style="ellipse;whiteSpace=wrap;html=1;" vertex="1" parent="1">
          <mxGeometry x="414" y="10" width="150" height="80" as="geometry" />
        </mxCell>
        <mxCell id="ba-HstKeJ3zoxD5T-Xpc-14" value="&amp;lt;&amp;lt;extend&amp;gt;&amp;gt;" style="text;html=1;align=center;verticalAlign=middle;resizable=0;points=[];autosize=1;strokeColor=none;fillColor=none;" vertex="1" parent="1">
          <mxGeometry x="340" y="100" width="90" height="30" as="geometry" />
        </mxCell>
        <mxCell id="ba-HstKeJ3zoxD5T-Xpc-15" value="" style="endArrow=none;html=1;rounded=0;dashed=1;startArrow=classic;startFill=1;" edge="1" parent="1" source="ba-HstKeJ3zoxD5T-Xpc-3">
          <mxGeometry width="50" height="50" relative="1" as="geometry">
            <mxPoint x="360" y="230" as="sourcePoint" />
            <mxPoint x="510" y="320" as="targetPoint" />
          </mxGeometry>
        </mxCell>
        <mxCell id="ba-HstKeJ3zoxD5T-Xpc-16" value="imposta lo strumento da accordare" style="ellipse;whiteSpace=wrap;html=1;" vertex="1" parent="1">
          <mxGeometry x="510" y="280" width="120" height="80" as="geometry" />
        </mxCell>
        <mxCell id="ba-HstKeJ3zoxD5T-Xpc-17" value="" style="endArrow=classic;html=1;rounded=0;startArrow=none;startFill=0;endFill=1;dashed=1;" edge="1" parent="1">
          <mxGeometry width="50" height="50" relative="1" as="geometry">
            <mxPoint x="600" y="450" as="sourcePoint" />
            <mxPoint x="600" y="350" as="targetPoint" />
          </mxGeometry>
        </mxCell>
        <mxCell id="ba-HstKeJ3zoxD5T-Xpc-18" value="crea un accordatura custom" style="ellipse;whiteSpace=wrap;html=1;" vertex="1" parent="1">
          <mxGeometry x="550" y="448" width="120" height="80" as="geometry" />
        </mxCell>
        <mxCell id="ba-HstKeJ3zoxD5T-Xpc-19" value="&amp;lt;&amp;lt;Include&amp;gt;&amp;gt;" style="text;html=1;align=center;verticalAlign=middle;resizable=0;points=[];autosize=1;strokeColor=none;fillColor=none;" vertex="1" parent="1">
          <mxGeometry x="420" y="250" width="90" height="30" as="geometry" />
        </mxCell>
        <mxCell id="ba-HstKeJ3zoxD5T-Xpc-20" value="&amp;lt;&amp;lt;extend&amp;gt;&amp;gt;" style="text;html=1;align=center;verticalAlign=middle;resizable=0;points=[];autosize=1;strokeColor=none;fillColor=none;" vertex="1" parent="1">
          <mxGeometry x="600" y="380" width="90" height="30" as="geometry" />
        </mxCell>
      </root>
    </mxGraphModel>
  </diagram>
</mxfile>
